<svg width="984" height="530" viewBox="0 0 984 530" fill="none" xmlns="http://www.w3.org/2000/svg" class="platform-draw mx-auto">
  <!-- Líneas verticales y horizontales -->
  <line x1="51.8268" y1="93.6667" x2="51.8268" y2="375.654" stroke="#0F5C4C" stroke-width="2" stroke-linecap="round" stroke-dasharray="6 6"></line>
  <line x1="89.3694" y1="91.8694" x2="55.4217" y2="91.8694" stroke="#0F5C4C" stroke-width="2" stroke-linecap="round" stroke-dasharray="6 6"></line>
  <line x1="89.3694" y1="377.654" x2="55.4217" y2="377.654" stroke="#0F5C4C" stroke-width="2" stroke-linecap="round" stroke-dasharray="6 6"></line>
  <line x1="89.3694" y1="289.582" x2="55.4217" y2="289.582" stroke="#0F5C4C" stroke-width="2" stroke-linecap="round" stroke-dasharray="6 6"></line>
  <line x1="89.3694" y1="192.523" x2="55.4217" y2="192.523" stroke="#0F5C4C" stroke-width="2" stroke-linecap="round" stroke-dasharray="6 6"></line>
  
  <!-- Iconos de base de datos -->
  <path d="M131.816 106.499H117.315C115.45 106.499 114 105.048 114 103.184V97.9012C114 96.0367 115.45 94.5865 117.315 94.5865H131.816C132.438 94.5865 132.852 95.0009 132.852 95.6224C132.852 96.2439 132.438 96.6582 131.816 96.6582H117.315C116.59 96.6582 116.072 97.1761 116.072 97.9012V103.184C116.072 103.909 116.59 104.427 117.315 104.427H131.816C132.438 104.427 132.852 104.841 132.852 105.463C132.852 106.084 132.438 106.499 131.816 106.499Z" fill="#0F5C4C"></path>
  <path d="M141.967 106.499H139.067C138.446 106.499 138.031 106.084 138.031 105.463C138.031 104.841 138.446 104.427 139.067 104.427H141.967C142.692 104.427 143.21 103.909 143.21 103.184V97.9012C143.21 97.1761 142.692 96.6582 141.967 96.6582H139.067C138.446 96.6582 138.031 96.2439 138.031 95.6224C138.031 95.0009 138.446 94.5865 139.067 94.5865H141.967C143.832 94.5865 145.282 96.0367 145.282 97.9012V103.184C145.282 105.048 143.832 106.499 141.967 106.499Z" fill="#0F5C4C"></path>
  <path d="M141.967 91.997H117.418C115.554 91.997 114.104 90.5468 114.104 88.6823V83.3997C114.104 81.5352 115.554 80.085 117.418 80.085H142.071C143.935 80.085 145.385 81.5352 145.385 83.3997V88.6823C145.282 90.5468 143.832 91.997 141.967 91.997ZM117.418 82.1567C116.693 82.1567 116.175 82.6746 116.175 83.3997V88.6823C116.175 89.4074 116.693 89.9253 117.418 89.9253H142.071C142.796 89.9253 143.314 89.4074 143.314 88.6823V83.3997C143.314 82.6746 142.796 82.1567 142.071 82.1567H117.418Z" fill="#0F5C4C"></path>
  <path d="M141.967 121H117.418C115.554 121 114.104 119.55 114.104 117.685V112.403C114.104 110.538 115.554 109.088 117.418 109.088H142.071C143.935 109.088 145.385 110.538 145.385 112.403V117.685C145.282 119.55 143.832 121 141.967 121ZM117.418 111.16C116.693 111.16 116.175 111.678 116.175 112.403V117.685C116.175 118.41 116.693 118.928 117.418 118.928H142.071C142.796 118.928 143.314 118.41 143.314 117.685V112.403C143.314 111.678 142.796 111.16 142.071 111.16H117.418Z" fill="#0F5C4C"></path>
  <path d="M152.325 106.499H150.668C148.804 106.499 147.354 105.048 147.354 103.184V97.9012C147.354 96.0367 148.804 94.5865 150.668 94.5865H152.325C154.19 94.5865 155.64 96.0367 155.64 97.9012V103.184C155.64 105.048 154.19 106.499 152.325 106.499ZM150.772 96.6582C150.047 96.6582 149.529 97.1761 149.529 97.9012V103.184C149.529 103.909 150.047 104.427 150.772 104.427H152.429C153.154 104.427 153.672 103.909 153.672 103.184V97.9012C153.672 97.1761 153.154 96.6582 152.429 96.6582H150.772Z" fill="#0F5C4C"></path>
  <path d="M152.325 91.997H150.668C148.804 91.997 147.354 90.5468 147.354 88.6823V83.3997C147.354 81.5352 148.804 80.085 150.668 80.085H152.325C154.19 80.085 155.64 81.5352 155.64 83.3997V88.6823C155.64 90.5468 154.19 91.997 152.325 91.997ZM150.772 82.1567C150.047 82.1567 149.425 82.6746 149.425 83.3997V88.6823C149.425 89.4074 149.943 89.9253 150.668 89.9253H152.325C153.051 89.9253 153.568 89.4074 153.568 88.6823V83.3997C153.568 82.6746 153.051 82.1567 152.325 82.1567H150.772Z" fill="#0F5C4C"></path>
  <path d="M152.325 121H150.668C148.804 121 147.354 119.55 147.354 117.685V112.403C147.354 110.538 148.804 109.088 150.668 109.088H152.325C154.19 109.088 155.64 110.538 155.64 112.403V117.685C155.64 119.55 154.19 121 152.325 121ZM150.772 111.16C150.047 111.16 149.529 111.678 149.529 112.403V117.685C149.529 118.41 150.047 118.928 150.772 118.928H152.429C153.154 118.928 153.672 118.41 153.672 117.685V112.403C153.672 111.678 153.154 111.16 152.429 111.16H150.772Z" fill="#0F5C4C"></path>
  
  <!-- Icono de red/network -->
  <path d="M120 265.375C113.813 265.375 108.75 270.438 108.75 276.625C108.75 280.375 110.625 283.751 113.438 285.626C108.375 288.251 105 293.313 105 299.125H108.75C108.75 292.938 113.813 287.875 120 287.875C126.187 287.875 131.25 292.938 131.25 299.125H135C135 293.125 139.876 288.063 145.876 287.875H146.25C150.938 287.875 154.875 285.063 156.562 281.126C156.562 281.126 156.562 280.939 156.749 280.939C156.937 280.751 156.936 280.376 156.936 280.188C156.936 280.001 156.939 279.999 157.126 279.811C157.126 279.624 157.313 279.251 157.313 279.064C157.313 278.876 157.312 278.688 157.5 278.5C157.5 278.312 157.499 278.124 157.687 277.936V276.999V276.812C157.687 270.624 152.624 265.562 146.437 265.562C140.249 265.562 135.187 270.624 135.187 276.812C135.187 280.562 137.062 283.938 139.874 285.813C137.062 287.126 134.812 289.374 133.312 291.999C131.812 289.374 129.562 287.126 126.749 285.813C129.374 283.751 131.25 280.375 131.25 276.625C131.25 270.438 126.187 265.375 120 265.375ZM120 269.125C124.125 269.125 127.5 272.5 127.5 276.625C127.5 280.75 124.125 284.125 120 284.125C115.875 284.125 112.5 280.75 112.5 276.625C112.5 272.5 115.875 269.125 120 269.125ZM146.25 269.125C150.375 269.125 153.75 272.5 153.75 276.625C153.75 280.75 150.375 284.125 146.25 284.125C142.125 284.125 138.75 280.75 138.75 276.625C138.75 272.5 142.125 269.125 146.25 269.125ZM150.187 289.75V293.687C149.062 293.874 147.938 294.439 147.001 295.001L144.188 292.189L141.562 294.811L144.375 297.624C143.625 298.561 143.251 299.688 143.064 301H138.75V304.75H142.687C142.874 305.875 143.439 307.001 144.001 308.126L141.189 310.939L143.811 313.561L146.624 310.749C147.561 311.311 148.688 311.876 149.813 312.063V316H153.563V312.063C154.688 311.876 155.812 311.311 156.749 310.749L159.562 313.561L162.188 310.939L159.375 308.126C160.125 307.189 160.499 306.062 160.686 304.75H165V301H161.063C160.876 299.875 160.311 298.749 159.749 297.624L162.561 294.811L159.939 292.189L157.126 295.001C156.189 294.439 155.062 293.874 153.937 293.687V289.75H150.187ZM151.875 297.25C155.063 297.25 157.5 299.687 157.5 302.875C157.5 306.063 155.063 308.5 151.875 308.5C148.687 308.5 146.25 306.063 146.25 302.875C146.25 299.687 148.687 297.25 151.875 297.25ZM151.875 301C151.641 301 151.406 301.059 151.187 301.161C150.967 301.264 150.762 301.41 150.586 301.586C150.41 301.762 150.264 301.967 150.161 302.187C150.059 302.406 150 302.641 150 302.875C150 303.109 150.059 303.344 150.161 303.563C150.264 303.783 150.41 303.988 150.586 304.164C150.762 304.34 150.967 304.486 151.187 304.589C151.406 304.691 151.641 304.75 151.875 304.75C152.812 304.75 153.75 303.812 153.75 302.875C153.75 301.938 152.812 301 151.875 301Z" fill="#0F5C4C"></path>
  
  <!-- Icono de engranaje -->
  <path d="M129.139 344.719L128.841 346.268L127.709 351.927C125.892 352.642 124.254 353.647 122.765 354.846L117.225 352.939L115.735 352.463L114.961 353.833L111.148 360.386L110.374 361.756L111.506 362.769L115.795 366.521C115.639 367.497 115.438 368.472 115.438 369.5C115.438 370.528 115.639 371.503 115.795 372.479L111.506 376.231L110.374 377.244L111.148 378.614L114.961 385.167L115.735 386.537L117.225 386.061L122.765 384.154C124.254 385.353 125.892 386.358 127.709 387.073L128.841 392.732L129.139 394.281H139.861L140.159 392.732L141.291 387.073C143.108 386.358 144.746 385.353 146.235 384.154L151.775 386.061L153.265 386.537L154.039 385.167L157.852 378.614L158.626 377.244L157.494 376.231L153.205 372.479C153.361 371.503 153.562 370.528 153.562 369.5C153.562 368.472 153.361 367.497 153.205 366.521L157.494 362.769L158.626 361.756L157.852 360.386L154.039 353.833L153.265 352.463L151.775 352.939L146.235 354.846C144.746 353.647 143.108 352.642 141.291 351.927L140.159 346.268L139.861 344.719H129.139ZM132.236 348.531H136.764L137.717 353.476L137.955 354.607L139.027 354.965C141.194 355.642 143.16 356.789 144.806 358.301L145.64 359.075L146.712 358.718L151.537 357.05L153.801 360.922L149.988 364.317L149.095 365.032L149.393 366.164C149.638 367.251 149.75 368.361 149.75 369.5C149.75 370.639 149.638 371.749 149.393 372.836L149.154 373.968L149.988 374.683L153.801 378.078L151.537 381.95L146.712 380.282L145.64 379.925L144.806 380.699C143.16 382.211 141.194 383.358 139.027 384.035L137.955 384.393L137.717 385.524L136.764 390.469H132.236L131.283 385.524L131.045 384.393L129.973 384.035C127.806 383.358 125.84 382.211 124.194 380.699L123.36 379.925L122.288 380.282L117.463 381.95L115.199 378.078L119.012 374.683L119.905 373.968L119.607 372.836C119.362 371.749 119.25 370.639 119.25 369.5C119.25 368.361 119.362 367.251 119.607 366.164L119.905 365.032L119.012 364.317L115.199 360.922L117.463 357.05L122.288 358.718L123.36 359.075L124.194 358.301C125.84 356.789 127.806 355.642 129.973 354.965L131.045 354.607L131.283 353.476L132.236 348.531ZM134.5 359.969C129.258 359.969 124.969 364.258 124.969 369.5C124.969 374.742 129.258 379.031 134.5 379.031C139.742 379.031 144.031 374.742 144.031 369.5C144.031 364.258 139.742 359.969 134.5 359.969ZM134.5 363.781C137.68 363.781 140.219 366.32 140.219 369.5C140.219 372.68 137.68 375.219 134.5 375.219C131.32 375.219 128.781 372.68 128.781 369.5C128.781 366.32 131.32 363.781 134.5 363.781Z" fill="#0F5C4C"></path>
  
  <!-- Rectángulo de texto -->
  <rect x="0.5" y="302.961" width="124.02" height="39.5425" transform="rotate(-90 0.5 302.961)" fill="#0F5C4C" fill-opacity="0.5"></rect>
  
  <!-- Texto "DATA" -->
  <path d="M31.0556 280.435C31.0556 283.066 30.2191 285.326 29.1138 286.584L24.0054 286.784L24.0054 285.783C27.7396 285.125 29.9801 283.324 29.9801 280.435C29.9801 277.918 28.4864 276.402 26.3057 276.402C23.9457 276.402 23.0196 277.66 21.5259 281.264C20.2414 284.382 18.8075 286.584 15.3123 286.584C11.9664 286.584 9.48694 284.153 9.48694 280.292C9.48694 277.975 10.1442 275.887 11.2196 274.457L15.6707 274.457L15.6707 275.401C12.3548 275.859 10.5624 277.546 10.5624 280.292C10.5624 282.437 11.9664 283.724 13.9381 283.724C16.1487 283.724 17.015 282.694 18.2996 279.548C19.9128 275.687 21.4363 273.513 24.9614 273.513C28.9047 273.513 31.0556 276.659 31.0556 280.435Z" fill="white"></path>
  <path d="M30.0697 265.299C30.0697 262.953 27.411 261.723 23.4378 261.723C19.2556 261.723 15.7902 262.868 15.7902 265.442C15.7902 267.787 18.449 268.988 22.4221 268.988C26.5745 268.988 30.0697 267.844 30.0697 265.299ZM31.0556 265.442C31.0556 269.618 27.9487 272.392 23.2885 272.392C18.1801 272.392 14.8044 269.303 14.8044 265.299C14.8044 261.123 17.9411 258.348 22.5416 258.348C27.6799 258.348 31.0556 261.437 31.0556 265.442Z" fill="white"></path>
  <path d="M18.1204 244.216L27.7396 244.216C28.7553 244.216 29.0242 244.159 29.1437 242.958L29.2034 242.214L29.9801 242.214L31.0556 246.933L31.0556 247.505L28.2176 247.391C29.6515 248.707 31.0556 250.222 31.0556 252.339C31.0556 254.827 29.6216 256.343 26.3057 256.343L18.2697 256.343C17.2242 256.343 16.8657 256.572 16.6566 257.802L16.5968 258.26L15.7902 258.26L14.8343 253.483L14.8343 253.025L18.2399 253.168L25.768 253.168C27.7994 253.168 28.9644 252.453 28.9644 250.766C28.9644 249.422 28.3072 248.421 27.5305 247.391L18.2697 247.391C17.2242 247.391 16.8657 247.591 16.6566 248.85L16.5968 249.279L15.7902 249.279L14.8343 244.559L14.8343 244.102L18.1204 244.216Z" fill="white"></path>
  <path d="M19.8829 236.831L28.367 236.831C29.5619 236.831 29.771 236.173 29.8905 234.342L30.7568 234.342L30.7568 241.922L29.8905 241.922C29.8009 240.492 29.5918 240.034 28.4864 240.034L17.8216 240.034L16.7761 241.836L16.3578 241.836L14.8044 237.202L14.8044 236.716L19.1062 236.831C15.9695 235.343 14.8044 234.6 14.8044 232.941C14.8044 232.397 15.0135 231.997 15.2824 231.768L17.971 231.768L17.971 232.254C17.971 233.999 18.0905 235.286 19.8829 236.831Z" fill="white"></path>
  <path d="M21.974 228.657C25.9173 228.657 28.5761 226.884 28.5761 223.967C28.5761 222.107 27.7097 220.82 26.2161 219.876L26.4252 219.447C29.4424 220.334 31.0556 222.308 31.0556 225.053C31.0556 228.829 28.0383 231.489 23.4677 231.489C18.5087 231.489 14.8044 228.714 14.8044 224.338C14.8044 221.621 15.9993 219.848 18.0905 219.848C18.9568 219.848 19.6738 220.277 20.0024 220.849L20.0024 222.737C19.614 222.679 19.1958 222.622 18.6581 222.622C17.1644 222.622 15.8201 223.108 15.8201 224.853C15.8201 227.227 18.5087 228.657 21.974 228.657Z" fill="white"></path>
  <path d="M14.8044 212.352C14.8044 208.691 17.4034 206.775 20.8687 206.775L21.4961 206.775L21.4961 216.185C26.0667 216.356 28.6657 214.154 28.6657 211.265C28.6657 209.263 27.7396 208.005 26.1264 206.975L26.3356 206.603C29.1138 207.29 31.0556 209.32 31.0556 212.438C31.0556 216.556 27.7396 219.073 23.3482 219.073C18.3593 219.073 14.8044 216.156 14.8044 212.352ZM15.8201 212.609C15.8201 214.669 17.8515 215.87 20.5401 216.099L20.5401 209.749C17.7918 209.749 15.8201 210.55 15.8201 212.609Z" fill="white"></path>
  <path d="M31.0556 200.581C31.0556 202.64 30.4581 204.442 29.5918 205.557L25.4692 205.729L25.4692 204.814C28.128 204.127 30.1295 202.726 30.1295 200.523C30.1295 198.893 29.2632 197.635 27.5006 197.635C25.8277 197.635 25.1406 198.693 24.1847 201.124C23.0495 204.07 21.8844 205.529 19.2556 205.529C16.4773 205.529 14.8044 203.555 14.8044 200.552C14.8044 198.75 15.2824 197.263 16.0591 196.062L19.6738 196.062L19.6738 196.891C17.4631 197.406 15.7305 198.579 15.7305 200.638C15.7305 202.211 16.6864 203.069 18.0606 203.069C19.5543 203.069 20.2712 202.182 21.1973 199.78C22.3026 196.862 23.5275 195.118 26.2459 195.118C29.2632 195.118 31.0556 197.291 31.0556 200.581Z" fill="white"></path>
  
  <!-- Icono de computadora -->
  <path d="M117.062 166.531V214.469H153.938V178.688L153.419 178.112L142.356 167.05L141.78 166.531H117.062ZM120.75 170.219H139.188V181.281H150.25V210.781H120.75V170.219ZM142.875 172.869L147.6 177.594H142.875V172.869ZM126.281 184.969V188.656H144.719V184.969H126.281ZM126.281 192.344V196.031H144.719V192.344H126.281ZM126.281 199.719V203.406H144.719V199.719H126.281Z" fill="#0F5C4C"></path>
  
  <!-- Elipse grande -->
  <ellipse cx="668.559" cy="238.661" rx="237.661" ry="97.0588" transform="rotate(90 668.559 238.661)" stroke="#0F5C4C" stroke-width="2" stroke-linejoin="round" stroke-dasharray="4 4"></ellipse>
  
  <!-- Líneas curvas de conexión -->
  <path d="M756.5 335.5L757.483 335.68L757.484 335.673L757.486 335.665L756.5 335.5ZM752.5 354.5L753.474 354.717L753.479 354.699L753.483 354.68L752.5 354.5ZM750 364.5L749.026 364.283L749.026 364.283L750 364.5ZM748 372.5L748.967 372.742L748.971 372.73L748.974 372.717L748 372.5ZM745.5 381.5L746.458 381.773L746.463 381.758L746.467 381.742L745.5 381.5ZM742.111 389.984C742.368 390.465 742.975 390.638 743.466 390.37L751.469 386.013C751.96 385.746 752.15 385.139 751.893 384.658C751.635 384.178 751.029 384.005 750.537 384.272L743.423 388.145L739.696 381.182C739.438 380.701 738.832 380.528 738.341 380.795C737.849 381.063 737.66 381.669 737.917 382.15L742.111 389.984ZM760 317.5L759.014 317.335L758.577 319.585L759.563 319.75L760.548 319.915L760.986 317.665L760 317.5ZM758.688 324.25L757.702 324.085L756.827 328.585L757.813 328.75L758.798 328.915L759.673 324.415L758.688 324.25ZM756.938 333.25L755.952 333.085L755.514 335.335L756.5 335.5L757.486 335.665L757.923 333.415L756.938 333.25ZM756.5 335.5L755.517 335.32L755.017 337.695L756 337.875L756.983 338.055L757.483 335.68L756.5 335.5ZM755 342.625L754.017 342.445L753.017 347.195L754 347.375L754.983 347.555L755.983 342.805L755 342.625ZM753 352.125L752.017 351.945L751.517 354.32L752.5 354.5L753.483 354.68L753.983 352.305L753 352.125ZM752.5 354.5L751.526 354.283L750.901 356.783L751.875 357L752.849 357.217L753.474 354.717L752.5 354.5ZM750.625 362L749.651 361.783L749.026 364.283L750 364.5L750.974 364.717L751.599 362.217L750.625 362ZM750 364.5L749.026 364.283L748.526 366.283L749.5 366.5L750.474 366.717L750.974 364.717L750 364.5ZM748.5 370.5L747.526 370.283L747.026 372.283L748 372.5L748.974 372.717L749.474 370.717L748.5 370.5ZM748 372.5L747.033 372.258L746.408 374.508L747.375 374.75L748.342 374.992L748.967 372.742L748 372.5ZM746.125 379.25L745.158 379.008L744.533 381.258L745.5 381.5L746.467 381.742L747.092 379.492L746.125 379.25ZM745.5 381.5L744.542 381.227L743.917 383.227L744.875 383.5L745.833 383.773L746.458 381.773L745.5 381.5ZM743.625 387.5L742.667 387.227L742.042 389.227L743 389.5L743.958 389.773L744.583 387.773L743.625 387.5Z" fill="#F4F0E6" fill-opacity="0.78" stroke-dasharray="4 4"></path>
  
  <!-- Más líneas de conexión -->
  <path d="M609.5 425L608.563 425.377L608.572 425.395L608.582 425.413L609.5 425ZM600.587 406.893L599.631 407.23L599.64 407.25L599.65 407.27L600.587 406.893ZM593.215 388.213C592.688 387.992 592.083 388.205 591.864 388.689L588.294 396.587C588.075 397.072 588.325 397.644 588.852 397.866C589.379 398.088 589.984 397.875 590.203 397.39L593.376 390.37L601.014 393.581C601.542 393.803 602.147 393.589 602.366 393.105C602.585 392.62 602.335 392.048 601.808 391.826L593.215 388.213ZM618.5 441.5L617.582 441.913L617.603 441.952L617.628 441.989L618.5 441.5ZM624.5 450.5L623.628 450.989L623.666 451.046L623.711 451.098L624.5 450.5ZM632 459L632.789 458.402L630.914 456.277L630.125 456.875L629.336 457.473L631.211 459.598L632 459ZM626.375 452.625L627.164 452.027L625.289 449.902L624.5 450.5L623.711 451.098L625.586 453.223L626.375 452.625ZM624.5 450.5L625.373 450.011L623.873 447.761L623 448.25L622.128 448.739L623.628 450.989L624.5 450.5ZM620 443.75L620.873 443.261L619.373 441.011L618.5 441.5L617.628 441.989L619.128 444.239L620 443.75ZM618.5 441.5L619.418 441.087L618.293 439.024L617.375 439.437L616.457 439.851L617.582 441.913L618.5 441.5ZM615.125 435.312L616.043 434.899L613.793 430.774L612.875 431.187L611.957 431.601L614.207 435.726L615.125 435.312ZM610.625 427.062L611.543 426.649L610.418 424.587L609.5 425L608.582 425.413L609.707 427.476L610.625 427.062ZM609.5 425L610.437 424.623L609.694 423.114L608.757 423.491L607.82 423.868L608.563 425.377L609.5 425ZM607.272 420.473L608.208 420.096L606.723 417.078L605.786 417.455L604.849 417.833L606.335 420.85L607.272 420.473ZM604.301 414.438L605.237 414.061L603.752 411.043L602.815 411.42L601.878 411.797L603.364 414.815L604.301 414.438ZM601.329 408.402L602.266 408.025L601.523 406.516L600.587 406.893L599.65 407.27L600.393 408.779L601.329 408.402ZM600.587 406.893L601.542 406.556L600.571 404.331L599.616 404.668L598.66 405.005L599.631 407.23L600.587 406.893ZM597.674 400.217L598.629 399.881L596.687 395.43L595.731 395.767L594.776 396.103L596.718 400.554L597.674 400.217ZM593.789 391.316L594.745 390.979L593.774 388.754L592.818 389.091L591.863 389.428L592.834 391.653L593.789 391.316Z" fill="#F4F0E6" fill-opacity="0.78"></path>
  
  <!-- Líneas de conexión adicionales -->
  <path d="M587.877 107.814L586.918 107.536L586.906 107.573L586.896 107.61L587.877 107.814ZM601.404 69.955C601.155 69.4756 600.548 69.2995 600.049 69.5615L591.909 73.8318C591.409 74.0938 591.206 74.6948 591.455 75.1741C591.705 75.6535 592.311 75.8296 592.811 75.5676L600.047 71.7718L603.656 78.7149C603.906 79.1943 604.512 79.3704 605.012 79.1083C605.512 78.8463 605.714 78.2453 605.465 77.766L601.404 69.955ZM583 127L582.02 126.795L582.009 126.836L582.003 126.877L583 127ZM580 145L580.997 145.123L581.372 142.873L580.375 142.75L579.378 142.627L579.003 144.877L580 145ZM581.125 138.25L582.122 138.373L582.872 133.873L581.875 133.75L580.878 133.627L580.128 138.127L581.125 138.25ZM582.625 129.25L583.622 129.373L583.997 127.123L583 127L582.003 126.877L581.628 129.127L582.625 129.25ZM583 127L583.98 127.205L584.59 124.806L583.61 124.602L582.629 124.397L582.02 126.795L583 127ZM584.829 119.805L585.809 120.01L587.028 115.213L586.048 115.009L585.067 114.804L583.848 119.601L584.829 119.805ZM587.267 110.213L588.247 110.417L588.857 108.019L587.877 107.814L586.896 107.61L586.287 110.008L587.267 110.213ZM587.877 107.814L588.835 108.093L589.466 106.223L588.508 105.945L587.549 105.667L586.918 107.536L587.877 107.814ZM589.77 102.207L590.729 102.485L591.991 98.7463L591.032 98.4681L590.074 98.1899L588.811 101.928L589.77 102.207ZM592.295 94.7296L593.253 95.0078L594.516 91.2693L593.557 90.9911L592.598 90.7129L591.336 94.4514L592.295 94.7296ZM594.819 87.2526L595.778 87.5308L597.04 83.7923L596.082 83.5141L595.123 83.236L593.861 86.9744L594.819 87.2526ZM597.344 79.7757L598.303 80.0538L599.565 76.3154L598.606 76.0372L597.648 75.759L596.386 79.4975L597.344 79.7757ZM599.869 72.2987L600.827 72.5769L601.459 70.7076L600.5 70.4294L599.541 70.1512L598.91 72.0205L599.869 72.2987Z" fill="#F4F0E6" fill-opacity="0.78"></path>
  
  <!-- Más líneas de conexión -->
  <path d="M719.5 36.5L720.394 36.0533L720.383 36.0339L720.371 36.015L719.5 36.5ZM727.307 49.6436L728.236 49.2594L728.22 49.2276L728.202 49.1969L727.307 49.6436ZM735 65L735.966 64.6993L735.949 64.6568L735.929 64.6158L735 65ZM741.571 83.864C742.088 84.1064 742.699 83.916 742.936 83.4388L746.802 75.6626C747.039 75.1854 746.812 74.6021 746.295 74.3597C745.778 74.1174 745.167 74.3078 744.929 74.7849L741.493 81.6972L734.004 78.1865C733.487 77.9442 732.876 78.1345 732.638 78.6117C732.401 79.0889 732.628 79.6722 733.145 79.9146L741.571 83.864ZM705.5 18.5L706.275 17.8909L706.213 17.8224L706.14 17.7651L705.5 18.5ZM713.569 27.462L714.44 26.977L714.397 26.9117L714.344 26.853L713.569 27.462ZM694 9.49995L693.36 10.2348L694.798 11.3598L695.438 10.625L696.077 9.89006L694.64 8.76506L694 9.49995ZM698.313 12.875L697.673 13.6098L700.548 15.8598L701.188 15.125L701.827 14.3901L698.952 12.1401L698.313 12.875ZM704.062 17.375L703.423 18.1098L704.86 19.2348L705.5 18.5L706.14 17.7651L704.702 16.6401L704.062 17.375ZM705.5 18.5L704.725 19.109L706.742 21.3495L707.517 20.7405L708.292 20.1314L706.275 17.8909L705.5 18.5ZM711.552 25.2215L710.777 25.8305L712.794 28.071L713.569 27.462L714.344 26.853L712.327 24.6125L711.552 25.2215ZM713.569 27.462L712.699 27.947L714.181 30.2065L715.052 29.7215L715.922 29.2365L714.44 26.977L713.569 27.462ZM718.017 34.2405L717.147 34.7255L718.629 36.985L719.5 36.5L720.371 36.015L718.888 33.7555L718.017 34.2405ZM719.5 36.5L718.606 36.9467L719.581 38.5897L720.476 38.143L721.37 37.6962L720.394 36.0533L719.5 36.5ZM722.428 41.4289L721.533 41.8756L723.485 45.1615L724.379 44.7148L725.274 44.268L723.322 40.9821L722.428 41.4289ZM726.331 48.0007L725.437 48.4474L726.413 50.0903L727.307 49.6436L728.202 49.1969L727.226 47.5539L726.331 48.0007ZM727.307 49.6436L726.379 50.0278L727.34 51.9474L728.269 51.5632L729.197 51.1789L728.236 49.2594L727.307 49.6436ZM730.192 55.4023L729.263 55.7865L731.187 59.6256L732.115 59.2414L733.044 58.8571L731.121 55.018L730.192 55.4023ZM734.038 63.0805L733.11 63.4647L734.071 65.3842L735 65L735.929 64.6158L734.967 62.6962L734.038 63.0805ZM735 65L734.034 65.3007L734.909 67.5507L735.875 67.25L736.841 66.9493L735.966 64.6993L735 65ZM737.625 71.75L736.659 72.0507L738.409 76.5507L739.375 76.25L740.341 75.9493L738.591 71.4493L737.625 71.75ZM741.125 80.75L740.159 81.0507L741.034 83.3007L742 83L742.966 82.6993L742.091 80.4493L741.125 80.75Z" fill="#F4F0E6" fill-opacity="0.78"></path>
  
  <!-- Círculos concéntricos -->
  <path d="M201.023 240.052C201.023 174.116 209.83 114.464 224.042 71.3302C231.149 49.7578 239.59 32.372 248.916 20.4005C258.251 8.41652 268.352 2.00023 278.784 2.00012C289.216 2.00012 299.318 8.41642 308.653 20.4005C317.978 32.372 326.419 49.7579 333.527 71.3302C347.738 114.464 356.545 174.116 356.545 240.052C356.545 305.988 347.738 365.64 333.527 408.775C326.419 430.347 317.978 447.733 308.653 459.704C299.318 471.688 289.216 478.105 278.784 478.105C268.352 478.105 258.251 471.688 248.916 459.704C239.59 447.733 231.149 430.347 224.042 408.775C209.83 365.64 201.023 305.988 201.023 240.052Z" stroke="#0F5C4C" stroke-opacity="0.5" stroke-width="2"></path>
  <path d="M228.072 240.053C228.072 180.275 236.166 126.197 249.225 87.0989C255.756 67.5446 263.51 51.7917 272.073 40.9485C280.644 30.0942 289.909 24.2952 299.468 24.2952C309.027 24.2952 318.293 30.0942 326.864 40.9485C335.426 51.7917 343.18 67.5446 349.711 87.0989C362.77 126.197 370.865 180.275 370.865 240.053C370.865 299.831 362.77 353.908 349.711 393.006C343.18 412.56 335.426 428.313 326.864 439.156C318.293 450.011 309.027 455.81 299.468 455.81C289.909 455.81 280.644 450.011 272.073 439.156C263.51 428.313 255.756 412.56 249.225 393.006C236.166 353.908 228.072 299.831 228.072 240.053Z" stroke="#0F5C4C" stroke-opacity="0.5" stroke-width="2"></path>
  <path d="M253.53 241.291C253.53 191.446 261.443 146.366 274.2 113.784C280.58 97.4899 288.152 84.372 296.509 75.3443C304.865 66.3177 313.931 61.4537 323.336 61.4537C332.74 61.4538 341.806 66.3178 350.162 75.3443C358.519 84.372 366.092 97.4897 372.471 113.784C385.229 146.366 393.14 191.446 393.14 241.291C393.14 291.135 385.229 336.215 372.471 368.797C366.092 385.092 358.519 398.21 350.162 407.238C341.806 416.264 332.74 421.128 323.336 421.128C313.931 421.128 304.865 416.264 296.509 407.238C288.152 398.21 280.58 385.092 274.2 368.797C261.443 336.215 253.53 291.135 253.53 241.291Z" stroke="#0F5C4C" stroke-opacity="0.5" stroke-width="2"></path>
  
  <!-- Red de conexiones (grupo con opacidad) -->
  <g opacity="0.3">
    <!-- Múltiples paths de conexión de red -->
    <path d="M626.286 224.885C626.007 224.885 625.746 224.714 625.642 224.441L596.809 148.138C596.675 147.786 596.85 147.392 597.202 147.252C597.539 147.119 597.942 147.281 598.092 147.633L604.623 163.577C604.627 163.583 604.63 163.59 604.63 163.599L626.931 223.958C627.064 224.314 626.883 224.707 626.528 224.841C626.448 224.873 626.366 224.885 626.286 224.885Z" fill="#C6A664"></path>
    <!-- ... más paths de conexión ... -->
  </g>
  
  <!-- Iconos de base de datos adicionales -->
  <path d="M636.206 214.589V250.238C636.206 253.038 638.472 255.33 641.298 255.33H656.576V209.497H641.298C638.472 209.497 636.206 211.788 636.206 214.589ZM651.484 250.238H641.298V214.589H651.484V250.238Z" fill="#0F5C4C"></path>
  <path d="M676.947 209.497H661.669V229.867H682.039V214.589C682.039 211.788 679.748 209.497 676.947 209.497ZM676.947 224.775H666.762V214.589H676.947V224.775Z" fill="#0F5C4C"></path>
  <path d="M661.669 255.33H676.947C679.748 255.33 682.039 253.038 682.039 250.238V234.96H661.669V255.33ZM666.762 240.052H676.947V250.238H666.762V240.052Z" fill="#0F5C4C"></path>
  
  <!-- Rectángulos de texto -->
  <rect x="695.52" y="320.935" width="165.359" height="39.5425" transform="rotate(-90 695.52 320.935)" fill="#0F5C4C" fill-opacity="0.5"></rect>
  
  <!-- Texto "INTELLIGENCE" -->
  <path d="M724.997 293.675L711.471 298.218L724.997 303.089L724.997 304.233L704.09 311.817C703.244 312.111 703.049 312.863 702.887 313.745L701.911 313.745L701.911 304.854L702.887 304.854C702.984 306.848 703.31 307.534 704.252 307.534C704.675 307.534 705.163 307.338 705.683 307.208L719.372 302.337L709.65 298.807L704.09 300.67C703.212 300.932 703.049 301.618 702.887 302.533L701.911 302.533L701.911 293.871L702.887 293.871C702.952 295.963 703.31 296.649 704.285 296.649C704.708 296.649 705.13 296.519 705.748 296.323L719.21 291.91L705.748 287.333C705.228 287.137 704.773 286.974 704.35 286.974C703.375 286.974 702.984 287.693 702.887 289.785L701.911 289.785L701.911 283.378L702.887 283.378C703.049 284.261 703.179 284.98 704.09 285.274L724.997 292.563L724.997 293.675Z" fill="white"></path>
  <!-- ... más texto ... -->
  
  <!-- Rectángulos adicionales -->
  <rect x="600.754" y="484.497" width="174.748" height="42.239" fill="#0F5C4C" fill-opacity="0.5"></rect>
  <rect x="219.745" y="484.895" width="174.748" height="42.239" fill="#0F5C4C" fill-opacity="0.5"></rect>
  <rect x="407.595" y="236.529" width="138.399" height="39.5425" fill="#0F5C4C" fill-opacity="0.5"></rect>
  <rect x="404" y="188" width="145.588" height="39.5425" fill="#0F5C4C" fill-opacity="0.5"></rect>
  
  <!-- Formas geométricas -->
  <path d="M794.376 241.213L884.923 69.3007L984 241.213L884.923 403.614L794.376 241.213Z" fill="#0F5C4C" fill-opacity="0.2"></path>
  <rect x="822.498" y="201" width="134.804" height="39.5425" transform="rotate(0.720973 822.498 201)" fill="#0F5C4C" fill-opacity="0.5"></rect>
  <rect width="100.295" height="36.1943" transform="matrix(0.999914 0.0131488 -0.00789535 0.999969 839.286 253)" fill="#0F5C4C" fill-opacity="0.5"></rect>
  
  <!-- Más texto y elementos -->
  <!-- ... resto del contenido ... -->
</svg>
