<svg width="567" height="560" viewBox="0 0 567 560" fill="none" xmlns="http://www.w3.org/2000/svg">
<g opacity="0.7">
<path d="M565.697 266.295C565.169 266.295 564.677 265.971 564.479 265.455L509.98 121.231C509.728 120.565 510.058 119.82 510.724 119.556C511.361 119.304 512.123 119.61 512.405 120.277L524.751 150.413C524.757 150.425 524.763 150.437 524.763 150.455L566.916 264.542C567.168 265.215 566.826 265.959 566.153 266.211C566.003 266.271 565.847 266.295 565.697 266.295Z" fill="#C6A664"/>
<path d="M523.544 152.208C523.178 152.208 522.812 152.051 522.56 151.757L416.371 28.8529C415.915 28.3247 415.957 27.5265 416.467 27.0523C416.977 26.5722 417.769 26.5842 418.274 27.0763L512.116 119.844C512.236 119.964 512.338 120.114 512.404 120.277L524.75 150.413C524.99 151.001 524.768 151.679 524.228 152.015C524.012 152.142 523.778 152.208 523.544 152.208ZM439.989 52.207L519.318 144.021L510.093 121.507L439.989 52.207Z" fill="#C6A664"/>
<path d="M135.15 44.1883C134.574 44.1883 134.051 43.8042 133.895 43.2341C133.709 42.5618 134.081 41.8716 134.736 41.6495L259.603 0.0671743C259.903 -0.0288281 260.215 -0.0228895 260.491 0.0911826L283.983 9.25635C284.517 9.46642 284.853 10.0006 284.805 10.5708C284.763 11.141 284.349 11.6212 283.785 11.7412L135.426 44.1584C135.336 44.1764 135.24 44.1883 135.15 44.1883ZM259.981 2.69008L158.774 36.3917L279.025 10.1146L259.981 2.69008Z" fill="#C6A664"/>
<path d="M417.356 29.3031C417.302 29.3031 417.242 29.297 417.188 29.2911L283.341 11.759L259.543 2.51582C258.919 2.27576 258.583 1.59755 258.763 0.955284C258.937 0.313076 259.579 -0.0890876 260.234 0.0189612L417.572 26.7162C418.274 26.8362 418.748 27.4905 418.646 28.1927C418.544 28.8409 417.992 29.3031 417.356 29.3031ZM272.346 4.71858L283.984 9.25615L349.784 17.8571L272.346 4.71858Z" fill="#C6A664"/>
<path d="M306.99 559.766C306.486 559.766 306.005 559.466 305.795 558.98C305.525 558.362 305.777 557.635 306.371 557.317L454.731 477.598C455.259 477.328 455.895 477.424 456.297 477.85C456.699 478.282 456.765 478.924 456.459 479.428L432.967 517.56C432.805 517.818 432.559 518.016 432.271 518.112L307.404 559.7C307.266 559.742 307.128 559.766 306.99 559.766ZM451.7 482.183L320.944 552.444L430.998 515.789L451.7 482.183Z" fill="#C6A664"/>
<path d="M431.856 518.178C431.568 518.178 431.286 518.082 431.046 517.896C430.53 517.488 430.404 516.755 430.746 516.191L454.238 478.06C454.316 477.934 454.418 477.826 454.532 477.73L535.098 412.661C535.638 412.223 536.418 412.295 536.886 412.805C537.348 413.322 537.324 414.114 536.832 414.6L432.774 517.8C432.522 518.052 432.186 518.178 431.856 518.178ZM456.339 479.615L438.692 508.262L516.863 430.734L456.339 479.615Z" fill="#C6A664"/>
<path d="M538.069 324.377C537.991 324.377 537.913 324.371 537.835 324.353C537.259 324.251 536.821 323.771 536.773 323.183L522.248 151.013C522.194 150.365 522.626 149.777 523.262 149.633C523.94 149.507 524.541 149.843 524.763 150.455L566.915 264.542C567.041 264.872 567.023 265.232 566.873 265.551L539.246 323.633C539.024 324.095 538.567 324.377 538.069 324.377ZM525.651 160.358L538.963 318.165L564.286 264.926L525.651 160.358Z" fill="#C6A664"/>
<path d="M535.915 414.978C535.867 414.978 535.819 414.978 535.771 414.972C535.098 414.894 534.594 414.318 534.612 413.646L536.767 323.045C536.773 322.859 536.815 322.678 536.893 322.516L564.521 264.434C564.809 263.834 565.505 263.558 566.105 263.756C566.729 263.966 567.102 264.602 566.975 265.251L537.193 413.934C537.067 414.546 536.527 414.978 535.915 414.978ZM539.366 323.381L537.571 398.773L562.354 275.052L539.366 323.381Z" fill="#C6A664"/>
<path d="M455.348 480.047C455.054 480.047 454.76 479.945 454.52 479.747C454.04 479.356 453.908 478.678 454.196 478.132L536.916 322.462C537.205 321.934 537.823 321.658 538.399 321.814C538.981 321.97 539.383 322.504 539.371 323.104L537.217 413.706C537.205 414.09 537.03 414.45 536.73 414.69L456.165 479.759C455.93 479.951 455.636 480.047 455.348 480.047ZM536.634 328.542L459.49 473.726L534.63 413.04L536.634 328.542Z" fill="#C6A664"/>
<path d="M1.3038 296.071C1.15377 296.071 1.00371 296.047 0.859648 295.993C0.253456 295.771 -0.100697 295.141 0.0253595 294.511L29.8316 145.827C29.9217 145.383 30.2398 145.017 30.6659 144.861C31.0861 144.699 31.5722 144.789 31.9264 145.071L67.7767 173.971C68.2689 174.367 68.407 175.058 68.1009 175.61L2.44419 295.393C2.21009 295.819 1.76599 296.071 1.3038 296.071ZM31.9624 148.444L4.25082 286.678L65.2919 175.316L31.9624 148.444Z" fill="#C6A664"/>
<path d="M66.9607 176.288C66.6666 176.288 66.3784 176.186 66.1444 176L30.294 147.1C30.0059 146.866 29.8318 146.523 29.8078 146.151C29.7898 145.785 29.9279 145.419 30.192 145.161L134.232 41.9613C134.682 41.5051 135.408 41.4572 135.918 41.8353C136.435 42.2134 136.603 42.9157 136.309 43.4858L68.1191 175.585C67.939 175.928 67.6149 176.18 67.2308 176.258C67.1407 176.276 67.0507 176.288 66.9607 176.288ZM33.061 145.983L66.5345 172.969L130.204 49.62L33.061 145.983Z" fill="#C6A664"/>
<path d="M149.674 533.057C149.332 533.057 149.002 532.925 148.762 532.679L54.8957 439.917C54.4395 439.473 54.3796 438.77 54.7397 438.248C55.1058 437.726 55.7781 437.558 56.3602 437.81L173.725 492.441C174.061 492.597 174.313 492.891 174.421 493.251C174.529 493.605 174.475 493.99 174.283 494.308L150.785 532.439C150.575 532.775 150.227 532.997 149.83 533.045C149.776 533.051 149.728 533.057 149.674 533.057ZM62.0562 443.338L149.422 529.678L171.294 494.188L62.0562 443.338Z" fill="#C6A664"/>
<path d="M306.99 559.766C306.918 559.766 306.846 559.76 306.774 559.748L149.459 533.039C149.033 532.967 148.667 532.685 148.487 532.289C148.313 531.898 148.337 531.442 148.565 531.07L172.063 492.939C172.411 492.369 173.131 492.153 173.744 492.453L307.56 557.293C308.142 557.575 308.43 558.242 308.232 558.86C308.052 559.406 307.548 559.766 306.99 559.766ZM151.794 530.794L298.197 555.649L173.666 495.31L151.794 530.794Z" fill="#C6A664"/>
<path d="M523.544 152.208C523.352 152.208 523.16 152.165 522.974 152.075L389.158 87.2531C388.515 86.941 388.245 86.1667 388.551 85.5245L416.179 27.4425C416.371 27.0464 416.743 26.7702 417.181 26.7102C417.619 26.6742 418.058 26.8183 418.34 27.1484L524.528 150.053C524.93 150.521 524.955 151.205 524.576 151.697C524.324 152.027 523.94 152.208 523.544 152.208ZM391.456 85.4765L518.436 146.986L417.673 30.3595L391.456 85.4765Z" fill="#C6A664"/>
<path d="M389.727 87.3852C389.457 87.3852 389.193 87.3012 388.971 87.1451L282.752 11.5311C282.266 11.183 282.08 10.5468 282.296 9.99461C282.512 9.44244 283.119 9.13629 283.677 9.17833L417.523 26.7104C417.937 26.7644 418.297 27.0105 418.501 27.3766C418.699 27.7427 418.711 28.1809 418.531 28.559L390.904 86.6411C390.736 86.9892 390.43 87.2472 390.058 87.3433C389.949 87.3733 389.835 87.3852 389.727 87.3852ZM288.52 12.4374L389.217 84.1201L415.41 29.0572L288.52 12.4374Z" fill="#C6A664"/>
<path d="M81.4865 348.451C81.2404 348.451 80.9883 348.379 80.7722 348.241L0.590551 295.861C0.0203748 295.489 -0.165705 294.739 0.164403 294.145L65.8211 174.361C66.0972 173.857 66.6914 173.599 67.2316 173.713C67.7958 173.833 68.2099 174.301 68.2579 174.878L82.7829 347.041C82.825 347.533 82.5789 348.013 82.1527 348.265C81.9487 348.391 81.7146 348.451 81.4865 348.451ZM3.02739 294.337L79.962 344.598L66.0251 179.397L3.02739 294.337Z" fill="#C6A664"/>
<path d="M55.8082 440.295C55.2681 440.295 54.7819 439.959 54.5898 439.455L0.0850158 295.231C-0.113074 294.703 0.0489976 294.109 0.487155 293.754C0.931335 293.394 1.53755 293.376 2.01768 293.676L82.1994 346.057C82.6735 346.369 82.8896 346.951 82.7395 347.497L57.0627 439.341C56.9127 439.887 56.4265 440.271 55.8683 440.295H55.8082ZM3.93234 298.04L55.6222 434.821L79.9726 347.719L3.93234 298.04Z" fill="#C6A664"/>
<path d="M173.173 494.926C172.987 494.926 172.801 494.884 172.621 494.806L55.2562 440.175C54.68 439.905 54.3799 439.257 54.554 438.644L80.2308 346.801C80.3689 346.303 80.789 345.936 81.2992 345.858C81.8034 345.822 82.3196 346.027 82.5897 346.459L174.277 492.933C174.583 493.419 174.529 494.056 174.151 494.488C173.893 494.77 173.539 494.926 173.173 494.926ZM57.363 438.278L169.734 490.586L81.9474 350.336L57.363 438.278Z" fill="#C6A664"/>
<path d="M306.99 559.766C306.714 559.766 306.432 559.676 306.204 559.502C305.795 559.196 305.609 558.68 305.717 558.182L322.217 484.128C322.349 483.552 322.847 483.132 323.435 483.108L455.295 477.442C455.805 477.388 456.441 477.814 456.603 478.402C456.766 478.984 456.501 479.602 455.967 479.89L307.608 559.61C307.41 559.712 307.2 559.766 306.99 559.766ZM324.546 485.67L308.88 555.973L449.725 480.287L324.546 485.67Z" fill="#C6A664"/>
<path d="M306.99 559.766C306.798 559.766 306.6 559.724 306.42 559.634L172.604 494.794C172.075 494.536 171.781 493.953 171.895 493.371C172.009 492.789 172.501 492.363 173.096 492.321L323.412 483.108C323.826 483.108 324.222 483.258 324.48 483.564C324.744 483.876 324.852 484.296 324.762 484.692L308.262 558.746C308.172 559.136 307.914 559.46 307.554 559.634C307.38 559.724 307.182 559.766 306.99 559.766ZM178.215 494.62L306.078 556.573L321.845 485.815L178.215 494.62Z" fill="#C6A664"/>
<path d="M215.32 96.5804C214.833 96.5804 214.383 96.3103 214.161 95.8722C213.927 95.416 213.981 94.8638 214.305 94.4617L282.495 9.65244C282.933 9.11226 283.713 9.01024 284.265 9.40635L390.484 85.0204C390.934 85.3445 391.132 85.9148 390.976 86.4489C390.826 86.9771 390.352 87.3553 389.794 87.3853L215.386 96.5803L215.32 96.5804ZM283.755 12.2393L218.159 93.8255L385.934 84.9784L283.755 12.2393Z" fill="#C6A664"/>
<path d="M66.9597 176.288C66.6236 176.288 66.2935 176.162 66.0474 175.916C65.6392 175.514 65.5432 174.895 65.8013 174.385L133.991 42.2856C134.159 41.9615 134.459 41.7214 134.819 41.6254C135.179 41.5233 135.557 41.5954 135.863 41.7934L216.033 94.1855C216.417 94.4376 216.639 94.8757 216.621 95.3319C216.597 95.7941 216.339 96.2081 215.937 96.4242L67.5779 176.132C67.3798 176.234 67.1698 176.288 66.9597 176.288ZM135.647 44.7644L70.0448 171.852L212.774 95.1698L135.647 44.7644Z" fill="#C6A664"/>
<path d="M215.319 96.5803C215.073 96.5803 214.827 96.5083 214.605 96.3702L134.435 43.9781C133.997 43.69 133.775 43.1678 133.871 42.6517C133.961 42.1355 134.357 41.7274 134.874 41.6133L283.233 9.19614C283.773 9.08809 284.325 9.31619 284.613 9.78434C284.907 10.2525 284.871 10.8527 284.523 11.2849L216.334 96.0941C216.076 96.4122 215.703 96.5803 215.319 96.5803ZM138.463 43.492L215.043 93.5432L280.184 12.5272L138.463 43.492Z" fill="#C6A664"/>
<path d="M538.069 324.377C537.655 324.377 537.259 324.179 537.007 323.831L463.139 220.325C462.791 219.839 462.821 219.173 463.217 218.717L522.56 150.053C522.902 149.663 523.442 149.507 523.946 149.669C524.444 149.831 524.799 150.275 524.841 150.797L539.366 322.967C539.414 323.549 539.072 324.095 538.519 324.299C538.369 324.353 538.219 324.377 538.069 324.377ZM465.858 219.647L536.371 318.459L522.506 154.098L465.858 219.647Z" fill="#C6A664"/>
<path d="M464.202 220.871C464.16 220.871 464.112 220.871 464.07 220.865C463.65 220.823 463.272 220.577 463.068 220.205L388.594 86.719C388.312 86.2209 388.39 85.6026 388.78 85.1885C389.17 84.7803 389.776 84.6604 390.299 84.9125L524.115 149.735C524.475 149.909 524.739 150.245 524.817 150.641C524.901 151.037 524.793 151.451 524.529 151.758L465.186 220.421C464.94 220.709 464.58 220.871 464.202 220.871ZM392.88 89.0538L464.43 217.312L521.45 151.337L392.88 89.0538Z" fill="#C6A664"/>
<path d="M455.348 480.047C455.318 480.047 455.288 480.047 455.258 480.041C454.748 480.011 454.304 479.675 454.13 479.195L411.983 365.095C411.857 364.765 411.875 364.399 412.025 364.081C412.181 363.763 412.457 363.523 412.787 363.408L537.654 321.838C538.171 321.676 538.723 321.826 539.065 322.234C539.407 322.642 539.467 323.213 539.221 323.687L456.5 479.356C456.272 479.783 455.828 480.047 455.348 480.047ZM414.888 365.455L455.564 475.569L535.392 325.337L414.888 365.455Z" fill="#C6A664"/>
<path d="M323.489 485.713C323.009 485.713 322.565 485.449 322.337 485.016C322.103 484.572 322.145 484.032 322.445 483.63L412.158 363.865C412.446 363.487 412.908 363.294 413.388 363.354C413.863 363.426 414.259 363.745 414.421 364.195L456.567 478.294C456.717 478.684 456.663 479.116 456.435 479.465C456.201 479.813 455.823 480.029 455.403 480.047L323.543 485.713H323.489ZM412.812 367.34L326.178 482.994L453.506 477.52L412.812 367.34Z" fill="#C6A664"/>
<path d="M413.202 365.947C412.86 365.947 412.524 365.809 412.272 365.557C411.924 365.203 411.81 364.681 411.972 364.213L462.971 219.137C463.133 218.681 463.536 218.35 464.022 218.278C464.484 218.236 464.982 218.416 465.264 218.813L539.132 322.318C539.372 322.654 539.438 323.087 539.306 323.477C539.18 323.873 538.874 324.179 538.483 324.311L413.616 365.881C413.478 365.923 413.34 365.947 413.202 365.947ZM464.598 222.366L415.309 362.568L535.987 322.396L464.598 222.366Z" fill="#C6A664"/>
<path d="M81.486 348.451C81.3659 348.451 81.2399 348.433 81.1198 348.397C80.6037 348.247 80.2316 347.791 80.1895 347.257L65.6645 175.093C65.6225 174.607 65.8566 174.139 66.2707 173.881C66.6848 173.617 67.207 173.611 67.6332 173.869L168.156 234.106C168.48 234.298 168.702 234.616 168.768 234.976C168.84 235.342 168.75 235.72 168.522 236.015L82.5183 347.941C82.2662 348.271 81.8821 348.451 81.486 348.451ZM68.4735 177.41L82.5003 343.692L165.569 235.588L68.4735 177.41Z" fill="#C6A664"/>
<path d="M167.49 236.525C167.256 236.525 167.028 236.465 166.817 236.339L66.2948 176.102C65.8926 175.862 65.6466 175.424 65.6586 174.955C65.6705 174.487 65.9346 174.061 66.3428 173.839L214.702 94.1316C215.182 93.8855 215.752 93.9456 216.161 94.2876C216.569 94.6297 216.725 95.1939 216.551 95.698L168.72 235.642C168.594 236.014 168.306 236.309 167.94 236.447C167.79 236.501 167.64 236.525 167.49 236.525ZM69.5959 175.045L166.775 233.278L213.015 97.9968L69.5959 175.045Z" fill="#C6A664"/>
<path d="M323.489 485.712C323.087 485.712 322.703 485.526 322.457 485.202L237.786 374.632C237.491 374.248 237.431 373.732 237.635 373.294C237.84 372.856 238.266 372.567 238.752 372.537L413.136 363.342C413.508 363.318 414.114 363.588 414.348 364.033C414.589 364.477 414.547 365.023 414.246 365.425L324.533 485.19C324.287 485.514 323.897 485.712 323.489 485.712ZM241.357 375.01L323.477 482.255L410.489 366.091L241.357 375.01Z" fill="#C6A664"/>
<path d="M173.173 494.926C172.729 494.926 172.315 494.698 172.075 494.32C171.817 493.918 171.805 493.413 172.033 492.999L237.677 373.216C237.887 372.826 238.278 372.574 238.722 372.544C239.154 372.43 239.586 372.7 239.85 373.048L324.521 483.618C324.815 484.002 324.876 484.512 324.671 484.95C324.473 485.389 324.047 485.683 323.567 485.713L173.251 494.926H173.173ZM238.998 376.217L175.448 492.177L320.968 483.258L238.998 376.217Z" fill="#C6A664"/>
<path d="M173.173 494.926C172.723 494.926 172.309 494.698 172.068 494.314L80.3808 347.839C80.1107 347.407 80.1167 346.849 80.4048 346.423C80.687 346.002 81.2031 345.78 81.7013 345.864L239.034 372.556C239.448 372.628 239.808 372.892 239.988 373.27C240.174 373.654 240.162 374.098 239.958 374.464L174.313 494.248C174.091 494.656 173.671 494.914 173.209 494.926H173.173ZM84.1261 348.919L173.101 491.048L236.795 374.818L84.1261 348.919Z" fill="#C6A664"/>
<path d="M238.818 375.143C238.746 375.143 238.674 375.137 238.602 375.125L81.2695 348.433C80.8194 348.355 80.4412 348.049 80.2732 347.623C80.1051 347.197 80.1772 346.717 80.4532 346.357L166.457 234.43C166.727 234.076 167.177 233.854 167.603 233.926C168.047 233.968 168.444 234.232 168.648 234.628L239.976 373.246C240.198 373.684 240.162 374.212 239.868 374.608C239.622 374.945 239.226 375.143 238.818 375.143ZM83.8384 346.225L236.471 372.124L167.273 237.641L83.8384 346.225Z" fill="#C6A664"/>
<path d="M238.818 375.142C238.332 375.136 237.882 374.866 237.66 374.434L166.331 235.816C166.133 235.438 166.139 234.982 166.343 234.604C166.547 234.226 166.92 233.974 167.346 233.926L321.395 216.874C321.869 216.838 322.349 217.042 322.619 217.438C322.889 217.84 322.913 218.356 322.691 218.783L239.971 374.452C239.743 374.878 239.299 375.142 238.818 375.142ZM169.512 236.309L238.836 371.031L319.234 219.737L169.512 236.309Z" fill="#C6A664"/>
<path d="M238.817 375.143C238.373 375.143 237.959 374.915 237.719 374.542C237.467 374.146 237.449 373.642 237.665 373.228L320.386 217.558C320.608 217.15 321.028 216.886 321.49 216.868C322 216.928 322.396 217.084 322.642 217.48L414.306 363.955C414.552 364.345 414.57 364.837 414.354 365.245C414.144 365.653 413.73 365.923 413.268 365.947L238.883 375.143H238.817ZM321.628 220.769L241.044 372.418L410.927 363.463L321.628 220.769Z" fill="#C6A664"/>
<path d="M413.202 365.947C412.757 365.947 412.337 365.719 412.097 365.335L320.434 218.861C320.182 218.458 320.17 217.948 320.404 217.534C320.638 217.114 321.148 217.006 321.55 216.868L464.213 218.266C464.633 218.272 465.024 218.477 465.27 218.819C465.51 219.167 465.57 219.605 465.432 220.001L414.432 365.077C414.264 365.551 413.844 365.881 413.346 365.941C413.298 365.941 413.25 365.947 413.202 365.947ZM323.903 219.497L412.872 361.662L462.371 220.853L323.903 219.497Z" fill="#C6A664"/>
<path d="M464.202 220.871H464.19L321.526 219.473C321.076 219.467 320.656 219.227 320.422 218.842C320.188 218.452 320.176 217.972 320.38 217.57L388.569 85.4824C388.791 85.0562 389.23 84.7862 389.704 84.7802H389.728C390.202 84.7802 390.634 85.0382 390.862 85.4464L465.336 218.932C465.564 219.341 465.558 219.833 465.324 220.235C465.084 220.631 464.664 220.871 464.202 220.871ZM323.663 216.892L461.975 218.242L389.77 88.8376L323.663 216.892Z" fill="#C6A664"/>
<path d="M321.538 219.473C321.16 219.473 320.8 219.311 320.554 219.022L214.335 96.1301C214.011 95.752 213.927 95.2238 214.119 94.7676C214.317 94.3114 214.755 94.0054 215.253 93.9753L389.662 84.7802C390.016 84.8101 390.568 84.9842 390.82 85.3744C391.072 85.7705 391.096 86.2627 390.886 86.6828L322.697 218.77C322.498 219.155 322.12 219.413 321.694 219.461C321.64 219.467 321.586 219.473 321.538 219.473ZM218.044 96.4363L321.262 215.859L387.531 87.5051L218.044 96.4363Z" fill="#C6A664"/>
<path d="M167.489 236.525C167.099 236.525 166.721 236.345 166.475 236.038C166.193 235.69 166.115 235.222 166.259 234.802L214.089 94.8577C214.239 94.4136 214.611 94.0895 215.074 93.9994C215.506 93.9034 215.998 94.0715 216.304 94.4256L322.523 217.318C322.841 217.684 322.925 218.194 322.751 218.645C322.577 219.095 322.163 219.413 321.682 219.467L167.633 236.519C167.585 236.525 167.537 236.525 167.489 236.525ZM215.818 97.8468L169.386 233.704L318.933 217.15L215.818 97.8468Z" fill="#C6A664"/>
</g>
</svg>
