<svg preserveAspectRatio="none" width="100%" height="100%" overflow="visible" style="display: block;" viewBox="0 0 84.2791 12.5413" fill="none" xmlns="http://www.w3.org/2000/svg">
<path id="Vector 4" d="M0 6.27066C0 9.73385 2.80747 12.5413 6.27066 12.5413C9.73385 12.5413 12.5413 9.73385 12.5413 6.27066C12.5413 2.80747 9.73385 0 6.27066 0C2.80747 0 0 2.80747 0 6.27066ZM71.7377 6.27066C71.7377 9.73385 74.5452 12.5413 78.0084 12.5413C81.4716 12.5413 84.2791 9.73385 84.2791 6.27066C84.2791 2.80747 81.4716 0 78.0084 0C74.5452 0 71.7377 2.80747 71.7377 6.27066ZM6.27066 6.27066V7.44641H78.0084V6.27066V5.09491H6.27066V6.27066Z" fill="var(--stroke-0, #C6A664)"/>
</svg>
