<svg preserveAspectRatio="none" width="100%" height="100%" overflow="visible" style="display: block;" viewBox="0 0 111.082 12.5413" fill="none" xmlns="http://www.w3.org/2000/svg">
<path id="Vector 2" d="M0 6.27066C0 9.73385 2.80747 12.5413 6.27066 12.5413C9.73385 12.5413 12.5413 9.73385 12.5413 6.27066C12.5413 2.80747 9.73385 0 6.27066 0C2.80747 0 0 2.80747 0 6.27066ZM98.5409 6.27066C98.5409 9.73385 101.348 12.5413 104.812 12.5413C108.275 12.5413 111.082 9.73385 111.082 6.27066C111.082 2.80747 108.275 0 104.812 0C101.348 0 98.5409 2.80747 98.5409 6.27066ZM6.27066 6.27066V7.44641H104.812V6.27066V5.09491H6.27066V6.27066Z" fill="var(--stroke-0, #C6A664)"/>
</svg>
