<svg preserveAspectRatio="none" width="100%" height="100%" overflow="visible" style="display: block;" viewBox="0 0 92.5565 121.725" fill="none" xmlns="http://www.w3.org/2000/svg">
<path id="Vector 1" d="M80.0152 6.27066C80.0152 9.73385 82.8227 12.5413 86.2858 12.5413C89.749 12.5413 92.5565 9.73385 92.5565 6.27066C92.5565 2.80747 89.749 0 86.2858 0C82.8227 0 80.0152 2.80747 80.0152 6.27066ZM86.2858 50.0228V51.1985H87.4616V50.0228H86.2858ZM6.27066 50.0228V48.847H5.09491V50.0228H6.27066ZM0 115.454C0 118.917 2.80747 121.725 6.27066 121.725C9.73385 121.725 12.5413 118.917 12.5413 115.454C12.5413 111.991 9.73385 109.183 6.27066 109.183C2.80747 109.183 0 111.991 0 115.454ZM86.2858 6.27066H85.1101V50.0228H86.2858H87.4616V6.27066H86.2858ZM86.2858 50.0228V48.847H6.27066V50.0228V51.1985H86.2858V50.0228ZM6.27066 50.0228H5.09491V115.454H6.27066H7.44641V50.0228H6.27066Z" fill="var(--stroke-0, #C6A664)"/>
</svg>
