<svg preserveAspectRatio="none" width="100%" height="100%" overflow="visible" style="display: block;" viewBox="0 0 82.7024 121.33" fill="none" xmlns="http://www.w3.org/2000/svg">
<path id="Vector 3" d="M70.1611 6.27066C70.1611 9.73385 72.9686 12.5413 76.4317 12.5413C79.8949 12.5413 82.7024 9.73385 82.7024 6.27066C82.7024 2.80747 79.8949 0 76.4317 0C72.9686 0 70.1611 2.80747 70.1611 6.27066ZM76.4317 62.2419V63.4176H77.6075V62.2419H76.4317ZM6.27066 62.2419V61.0661H5.09491V62.2419H6.27066ZM0 115.06C0 118.523 2.80747 121.33 6.27066 121.33C9.73385 121.33 12.5413 118.523 12.5413 115.06C12.5413 111.597 9.73385 108.789 6.27066 108.789C2.80747 108.789 0 111.597 0 115.06ZM76.4317 6.27066H75.256V62.2419H76.4317H77.6075V6.27066H76.4317ZM76.4317 62.2419V61.0661H6.27066V62.2419V63.4176H76.4317V62.2419ZM6.27066 62.2419H5.09491V115.06H6.27066H7.44641V62.2419H6.27066Z" fill="var(--stroke-0, #C6A664)"/>
</svg>
