<svg preserveAspectRatio="none" width="100%" height="100%" overflow="visible" style="display: block;" viewBox="0 0 107.535 12.5413" fill="none" xmlns="http://www.w3.org/2000/svg">
<path id="Vector 5" d="M0 6.27066C0 9.73385 2.80747 12.5413 6.27066 12.5413C9.73385 12.5413 12.5413 9.73385 12.5413 6.27066C12.5413 2.80747 9.73385 0 6.27066 0C2.80747 0 0 2.80747 0 6.27066ZM94.9934 6.27066C94.9934 9.73385 97.8008 12.5413 101.264 12.5413C104.727 12.5413 107.535 9.73385 107.535 6.27066C107.535 2.80747 104.727 0 101.264 0C97.8008 0 94.9934 2.80747 94.9934 6.27066ZM6.27066 6.27066V7.44641H101.264V6.27066V5.09491H6.27066V6.27066Z" fill="var(--stroke-0, #C6A664)"/>
</svg>
