<svg preserveAspectRatio="none" width="100%" height="100%" overflow="visible" style="display: block;" viewBox="0 0 322.383 63.8118" fill="none" xmlns="http://www.w3.org/2000/svg">
<path id="Vector 7" d="M321.207 2.3515C321.857 2.3515 322.383 1.8251 322.383 1.17575C322.383 0.526401 321.857 0 321.207 0V1.17575V2.3515ZM6.27066 1.17575V0H5.09491V1.17575H6.27066ZM0 57.5411C0 61.0043 2.80747 63.8118 6.27066 63.8118C9.73385 63.8118 12.5413 61.0043 12.5413 57.5411C12.5413 54.0779 9.73385 51.2705 6.27066 51.2705C2.80747 51.2705 0 54.0779 0 57.5411ZM321.207 1.17575V0H6.27066V1.17575V2.3515H321.207V1.17575ZM6.27066 1.17575H5.09491V57.5411H6.27066H7.44641V1.17575H6.27066Z" fill="var(--stroke-0, #C6A664)"/>
</svg>
