<svg preserveAspectRatio="none" width="100%" height="100%" overflow="visible" style="display: block;" viewBox="0 0 321.171 150.499" fill="none" xmlns="http://www.w3.org/2000/svg">
<path id="Vector 6" d="M0 6.27066C0 9.73385 2.80747 12.5413 6.27066 12.5413C9.73385 12.5413 12.5413 9.73385 12.5413 6.27066C12.5413 2.80747 9.73385 0 6.27066 0C2.80747 0 0 2.80747 0 6.27066ZM0 126.491C0 129.954 2.80747 132.761 6.27066 132.761C9.73385 132.761 12.5413 129.954 12.5413 126.491C12.5413 123.027 9.73385 120.22 6.27066 120.22C2.80747 120.22 0 123.027 0 126.491ZM314.901 66.3806H316.076V65.2048H314.901V66.3806ZM308.63 144.228C308.63 147.691 311.437 150.499 314.901 150.499C318.364 150.499 321.171 147.691 321.171 144.228C321.171 140.765 318.364 137.957 314.901 137.957C311.437 137.957 308.63 140.765 308.63 144.228ZM6.27066 6.27066H5.09491V66.3806H6.27066H7.44641V6.27066H6.27066ZM6.27066 66.3806H5.09491V126.491H6.27066H7.44641V66.3806H6.27066ZM6.27066 66.3806V67.5563H314.901V66.3806V65.2048H6.27066V66.3806ZM314.901 66.3806H313.725V144.228H314.901H316.076V66.3806H314.901Z" fill="var(--stroke-0, #C6A664)"/>
</svg>
