<svg preserveAspectRatio="none" width="100%" height="100%" overflow="visible" style="display: block;" viewBox="0 0 45 45" fill="none" xmlns="http://www.w3.org/2000/svg">
<g id="Frame" clip-path="url(#clip0_0_208)">
<path id="Vector" d="M22.5 45C34.9264 45 45 34.9264 45 22.5C45 10.0736 34.9264 0 22.5 0C10.0736 0 0 10.0736 0 22.5C0 34.9264 10.0736 45 22.5 45Z" fill="var(--fill-0, #2CA01C)"/>
<path id="Vector_2" d="M5.4234 22.4928C5.4252 27.5796 9.5274 31.716 14.6142 31.761H15.9156V28.3608H14.6142C11.4606 29.2212 8.208 27.3618 7.3494 24.2082C7.3422 24.183 7.3368 24.1578 7.3296 24.1326C6.4458 20.9376 8.2962 17.6274 11.4804 16.7076H12.1302C12.9456 16.5294 13.7898 16.5294 14.6052 16.7076H17.766V34.7598C17.7498 36.6696 19.2852 38.232 21.195 38.25V13.1328H14.634C9.5112 13.1598 5.382 17.334 5.409 22.4568V22.4586L5.4234 22.4928ZM30.3984 13.1364H29.097V16.7166H30.3984C33.5448 15.858 36.7902 17.712 37.6488 20.8566C37.656 20.88 37.6614 20.9052 37.6686 20.9286C38.547 24.1128 36.702 27.4104 33.5304 28.3284H32.8806C32.0652 28.5066 31.221 28.5066 30.4056 28.3284H27.2448V10.278C27.261 8.3682 25.7256 6.8058 23.8158 6.7878V31.941H30.3768C35.5446 31.86 39.6684 27.6066 39.5892 22.4388C39.51 17.3844 35.433 13.3056 30.3768 13.2264L30.3984 13.1364Z" fill="var(--fill-0, white)"/>
</g>
<defs>
<clipPath id="clip0_0_208">
<rect width="45" height="45" fill="white"/>
</clipPath>
</defs>
</svg>
