<svg preserveAspectRatio="none" width="100%" height="100%" overflow="visible" style="display: block;" viewBox="0 0 60 42" fill="none" xmlns="http://www.w3.org/2000/svg">
<g id="Frame" clip-path="url(#clip0_0_198)">
<path id="Vector" d="M24.9684 4.5821C26.9035 2.56589 29.5975 1.31538 32.5769 1.31538C36.5377 1.31538 39.9932 3.5239 41.8334 6.80252C43.4326 6.08805 45.2026 5.69057 47.065 5.69057C54.2085 5.69057 60 11.5325 60 18.7384C60 25.9452 54.2085 31.7871 47.065 31.7871C46.2094 31.7876 45.3558 31.7026 44.5171 31.5333C42.8966 34.4238 39.8086 36.3769 36.2641 36.3769C34.7804 36.3769 33.3769 36.0342 32.1274 35.4247C30.4846 39.2888 26.6573 41.9982 22.1966 41.9982C17.5513 41.9982 13.5923 39.0589 12.0727 34.9367C11.4086 35.0777 10.7205 35.1512 10.0145 35.1512C4.48378 35.1513 1.78814e-08 30.6214 1.78814e-08 25.0325C1.78814e-08 21.2872 2.01453 18.0171 5.00769 16.2675C4.39147 14.8496 4.04871 13.2846 4.04871 11.6393C4.04871 5.21195 9.26667 0.00174175 15.7026 0.00174175C19.4812 0.00174175 22.8393 1.79832 24.9684 4.5821Z" fill="var(--fill-0, #00A1E0)"/>
</g>
<defs>
<clipPath id="clip0_0_198">
<rect width="60" height="42" fill="white"/>
</clipPath>
</defs>
</svg>
