<svg preserveAspectRatio="none" width="100%" height="100%" overflow="visible" style="display: block;" viewBox="0 0 42.0066 41.9735" fill="none" xmlns="http://www.w3.org/2000/svg">
<g id="Group">
<path id="Vector" fill-rule="evenodd" clip-rule="evenodd" d="M8.85782 26.5336C8.85782 28.9754 6.8872 30.946 4.4455 30.946C2.00379 30.946 0.0331758 28.9687 0.0331758 26.5336C0.0331758 24.0986 2.00379 22.1213 4.4455 22.1213H8.85782V26.5336ZM11.0607 26.5336C11.0607 24.0919 13.0313 22.1213 15.473 22.1213C17.9147 22.1213 19.8853 24.0919 19.8853 26.5336V37.5611C19.8853 40.0028 17.9147 41.9735 15.473 41.9735C13.0313 41.9735 11.0607 40.0028 11.0607 37.5611V26.5336Z" fill="var(--fill-0, #E01E5A)"/>
<path id="Vector_2" fill-rule="evenodd" clip-rule="evenodd" d="M15.473 8.82464C13.0313 8.82464 11.0607 6.85403 11.0607 4.41232C11.0607 1.97062 13.0313 0 15.473 0C17.9147 0 19.8853 1.97062 19.8853 4.41232V8.82464H15.473ZM15.473 11.0607C17.9147 11.0607 19.8853 13.0313 19.8853 15.473C19.8853 17.9147 17.9147 19.8853 15.473 19.8853H4.41232C1.97062 19.8853 0 17.9081 0 15.473C0 13.0379 1.97062 11.0607 4.41232 11.0607H15.473Z" fill="var(--fill-0, #36C5F0)"/>
<path id="Vector_3" fill-rule="evenodd" clip-rule="evenodd" d="M33.1488 15.473C33.1488 13.0313 35.1194 11.0607 37.5611 11.0607C40.0028 11.0607 41.9735 13.0313 41.9735 15.473C41.9735 17.9147 40.0028 19.8853 37.5611 19.8853H33.1488V15.473ZM30.946 15.473C30.946 17.9147 28.9754 19.8853 26.5336 19.8853C24.0919 19.8853 22.1213 17.9147 22.1213 15.473V4.41232C22.1213 1.97062 24.0919 3.96743e-07 26.5336 3.96743e-07C28.9754 3.96743e-07 30.946 1.97062 30.946 4.41232V15.473Z" fill="var(--fill-0, #2EB67D)"/>
<path id="Vector_4" fill-rule="evenodd" clip-rule="evenodd" d="M26.5336 33.1488C28.9754 33.1488 30.946 35.1194 30.946 37.5611C30.946 40.0028 28.9754 41.9735 26.5336 41.9735C24.0919 41.9735 22.1213 40.0028 22.1213 37.5611V33.1488H26.5336ZM26.5336 30.946C24.0919 30.946 22.1213 28.9754 22.1213 26.5336C22.1213 24.0919 24.0919 22.1213 26.5336 22.1213H37.5943C40.036 22.1213 42.0066 24.0919 42.0066 26.5336C42.0066 28.9754 40.036 30.946 37.5943 30.946H26.5336Z" fill="var(--fill-0, #ECB22E)"/>
</g>
</svg>
